<?xml version="1.0" encoding="UTF-8" standalone="no"?>
<!-- Created with Inkscape (http://www.inkscape.org/) -->

<svg
   xmlns:dc="http://purl.org/dc/elements/1.1/"
   xmlns:cc="http://creativecommons.org/ns#"
   xmlns:rdf="http://www.w3.org/1999/02/22-rdf-syntax-ns#"
   xmlns:svg="http://www.w3.org/2000/svg"
   xmlns="http://www.w3.org/2000/svg"
   xmlns:sodipodi="http://sodipodi.sourceforge.net/DTD/sodipodi-0.dtd"
   xmlns:inkscape="http://www.inkscape.org/namespaces/inkscape"
   width="500"
   height="380"
   viewBox="0 0 499.99998 380.00002"
   id="svg5843"
   version="1.1"
   inkscape:version="0.91 r13725"
   sodipodi:docname="power-grid-3.svg"
   inkscape:export-filename="/home/jeroen/Documents/Courses/Automated Reasoning/Automated-Reasoning/Document/power-grid-3.png"
   inkscape:export-xdpi="90"
   inkscape:export-ydpi="90">
  <defs
     id="defs5845" />
  <sodipodi:namedview
     id="base"
     pagecolor="#ffffff"
     bordercolor="#666666"
     borderopacity="1.0"
     inkscape:pageopacity="0.0"
     inkscape:pageshadow="2"
     inkscape:zoom="1.4"
     inkscape:cx="168.67853"
     inkscape:cy="173.71098"
     inkscape:document-units="px"
     inkscape:current-layer="layer1"
     showgrid="false"
     units="px"
     inkscape:window-width="1600"
     inkscape:window-height="851"
     inkscape:window-x="0"
     inkscape:window-y="0"
     inkscape:window-maximized="1" />
  <metadata
     id="metadata5848">
    <rdf:RDF>
      <cc:Work
         rdf:about="">
        <dc:format>image/svg+xml</dc:format>
        <dc:type
           rdf:resource="http://purl.org/dc/dcmitype/StillImage" />
        <dc:title></dc:title>
      </cc:Work>
    </rdf:RDF>
  </metadata>
  <g
     inkscape:label="Layer 1"
     inkscape:groupmode="layer"
     id="layer1"
     transform="translate(0,-672.36225)">
    <rect
       style="opacity:1;fill:#f2f2f2;fill-opacity:1;fill-rule:nonzero;stroke:#f2f2f2;stroke-width:1.71727407;stroke-miterlimit:4;stroke-dasharray:none;stroke-dashoffset:0;stroke-opacity:1"
       id="rect5941"
       width="498.28271"
       height="377.59317"
       x="0.85862178"
       y="673.91028" />
    <g
       id="g7213"
       transform="matrix(1.7240744,0,0,1.7241386,0.69498644,-761.68711)">
      <rect
         transform="matrix(0,1,-1,0,0,0)"
         y="-218.9126"
         x="892.84076"
         height="198.6226"
         width="38.615036"
         id="rect4730"
         style="opacity:1;fill:#2185d5;fill-opacity:1;fill-rule:nonzero;stroke:#2185d5;stroke-width:1.38472199;stroke-miterlimit:4;stroke-dasharray:none;stroke-dashoffset:0;stroke-opacity:1" />
      <text
         transform="scale(1.0019647,0.99803915)"
         sodipodi:linespacing="125%"
         id="text5891"
         y="924.83752"
         x="107.04635"
         style="font-style:normal;font-weight:normal;font-size:39.9240303px;line-height:125%;font-family:sans-serif;letter-spacing:0px;word-spacing:0px;opacity:0.2;fill:#000000;fill-opacity:1;stroke:none;stroke-width:1px;stroke-linecap:butt;stroke-linejoin:miter;stroke-opacity:1"
         xml:space="preserve"><tspan
           y="924.83752"
           x="107.04635"
           id="tspan5893"
           sodipodi:role="line">e</tspan></text>
    </g>
    <g
       id="g7230"
       transform="matrix(1.7241373,0,0,1.7238287,-0.47398297,-764.34947)">
      <rect
         transform="matrix(0,1,-1,0,0,0)"
         y="-99.65728"
         x="934.47797"
         height="88.764725"
         width="68.777023"
         id="rect4734"
         style="opacity:1;fill:#625772;fill-opacity:1;fill-rule:nonzero;stroke:#625772;stroke-width:1.23541236;stroke-miterlimit:4;stroke-dasharray:none;stroke-dashoffset:0;stroke-opacity:1" />
      <text
         transform="scale(1.0019446,0.99805918)"
         sodipodi:linespacing="125%"
         id="text5895"
         y="981.57709"
         x="43.624649"
         style="font-style:normal;font-weight:normal;font-size:39.6644249px;line-height:125%;font-family:sans-serif;letter-spacing:0px;word-spacing:0px;opacity:0.2;fill:#000000;fill-opacity:1;stroke:none;stroke-width:1px;stroke-linecap:butt;stroke-linejoin:miter;stroke-opacity:1"
         xml:space="preserve"><tspan
           y="981.57709"
           x="43.624649"
           id="tspan5897"
           sodipodi:role="line">a</tspan></text>
    </g>
    <g
       id="g7208"
       transform="matrix(1.7238285,0,0,1.7241407,-3.4016734,-757.16427)">
      <rect
         transform="matrix(0,1,-1,0,0,0)"
         style="opacity:1;fill:#00adb5;fill-opacity:1;fill-rule:nonzero;stroke:#00adb5;stroke-width:1.20516419;stroke-miterlimit:4;stroke-dasharray:none;stroke-dashoffset:0;stroke-opacity:1"
         id="rect4732"
         width="58.794949"
         height="98.812668"
         x="830.1264"
         y="-211.40836" />
      <text
         transform="scale(1.0019446,0.99805918)"
         sodipodi:linespacing="125%"
         id="text5899"
         y="876.263"
         x="153.87285"
         style="font-style:normal;font-weight:normal;font-size:39.6644249px;line-height:125%;font-family:sans-serif;letter-spacing:0px;word-spacing:0px;opacity:0.2;fill:#000000;fill-opacity:1;stroke:none;stroke-width:1px;stroke-linecap:butt;stroke-linejoin:miter;stroke-opacity:1"
         xml:space="preserve"><tspan
           y="876.263"
           x="153.87285"
           id="tspan5901"
           sodipodi:role="line">f</tspan></text>
    </g>
    <g
       id="g7191"
       transform="matrix(1.7238283,0,0,1.7241398,-1.4773419,-762.38868)">
      <rect
         y="953.25037"
         x="201.58907"
         height="98.607941"
         width="78.622047"
         id="rect4740"
         style="opacity:1;fill:#9df276;fill-opacity:1;fill-rule:nonzero;stroke:#9df276;stroke-width:1.39218879;stroke-miterlimit:4;stroke-dasharray:none;stroke-dashoffset:0;stroke-opacity:1" />
      <text
         transform="scale(1.0019446,0.99805918)"
         sodipodi:linespacing="125%"
         id="text5903"
         y="1019.5718"
         x="227.74687"
         style="font-style:normal;font-weight:normal;font-size:39.6644249px;line-height:125%;font-family:sans-serif;letter-spacing:0px;word-spacing:0px;opacity:0.2;fill:#000000;fill-opacity:1;stroke:none;stroke-width:1px;stroke-linecap:butt;stroke-linejoin:miter;stroke-opacity:1"
         xml:space="preserve"><tspan
           y="1019.5718"
           x="227.74687"
           id="tspan5905"
           sodipodi:role="line">h</tspan></text>
    </g>
    <g
       id="g7235"
       transform="matrix(1.7241375,0,0,1.7238285,0.95821907,-759.04229)">
      <rect
         transform="matrix(0,1,-1,0,0,0)"
         style="opacity:1;fill:#ff5757;fill-opacity:1;fill-rule:nonzero;stroke:#ff5757;stroke-width:1.30207121;stroke-miterlimit:4;stroke-dasharray:none;stroke-dashoffset:0;stroke-opacity:1"
         id="rect4742"
         width="68.710365"
         height="98.698059"
         x="931.43268"
         y="-198.79327" />
      <text
         transform="scale(1.0019446,0.99805918)"
         sodipodi:linespacing="125%"
         id="text5907"
         y="978.49237"
         x="138.38586"
         style="font-style:normal;font-weight:normal;font-size:39.6644249px;line-height:125%;font-family:sans-serif;letter-spacing:0px;word-spacing:0px;opacity:0.2;fill:#000000;fill-opacity:1;stroke:none;stroke-width:1px;stroke-linecap:butt;stroke-linejoin:miter;stroke-opacity:1"
         xml:space="preserve"><tspan
           y="978.49237"
           x="138.38586"
           id="tspan5909"
           sodipodi:role="line">c</tspan></text>
    </g>
    <g
       id="g7196"
       transform="matrix(1.7241372,0,0,1.7238289,-5.0523338,-759.15321)">
      <rect
         transform="scale(-1,-1)"
         y="-950.18945"
         x="-292.27069"
         height="118.70177"
         width="58.680527"
         id="rect4746"
         style="opacity:1;fill:#f9ed69;fill-opacity:1;fill-rule:nonzero;stroke:#f9ed69;stroke-width:1.31961012;stroke-miterlimit:4;stroke-dasharray:none;stroke-dashoffset:0;stroke-opacity:1" />
      <text
         transform="scale(1.0019446,0.99805918)"
         sodipodi:linespacing="125%"
         id="text5911"
         y="907.35779"
         x="249.11465"
         style="font-style:normal;font-weight:normal;font-size:39.6644249px;line-height:125%;font-family:sans-serif;letter-spacing:0px;word-spacing:0px;opacity:0.2;fill:#000000;fill-opacity:1;stroke:none;stroke-width:1px;stroke-linecap:butt;stroke-linejoin:miter;stroke-opacity:1"
         xml:space="preserve"><tspan
           y="907.35779"
           x="249.11465"
           id="tspan5913"
           sodipodi:role="line">b</tspan></text>
    </g>
    <g
       id="g7225"
       transform="matrix(1.7238286,0,0,1.7241403,2.4658728,-759.58825)">
      <rect
         transform="matrix(0,1,-1,0,0,0)"
         style="opacity:1;fill:#f08a5d;fill-opacity:1;fill-rule:nonzero;stroke:#f08a5d;stroke-width:1.07831419;stroke-miterlimit:4;stroke-dasharray:none;stroke-dashoffset:0;stroke-opacity:1"
         id="rect4744"
         width="58.921791"
         height="78.935936"
         x="831.46906"
         y="-78.04467" />
      <text
         transform="scale(1.0019446,0.99805918)"
         sodipodi:linespacing="125%"
         id="text5915"
         y="869.58606"
         x="26.619894"
         style="font-style:normal;font-weight:normal;font-size:39.6644249px;line-height:125%;font-family:sans-serif;letter-spacing:0px;word-spacing:0px;opacity:0.2;fill:#000000;fill-opacity:1;stroke:none;stroke-width:1px;stroke-linecap:butt;stroke-linejoin:miter;stroke-opacity:1"
         xml:space="preserve"><tspan
           y="869.58606"
           x="26.619894"
           id="tspan5917"
           sodipodi:role="line">g</tspan></text>
    </g>
    <g
       id="g7240"
       transform="matrix(1.7238285,0,0,1.7241422,-0.11305263,-761.70435)">
      <rect
         transform="matrix(0,1,-1,0,0,0)"
         style="opacity:1;fill:#b83b5e;fill-opacity:1;fill-rule:nonzero;stroke:#b83b5e;stroke-width:1.47183812;stroke-miterlimit:4;stroke-dasharray:none;stroke-dashoffset:0;stroke-opacity:1"
         id="rect4750"
         width="48.528297"
         height="178.56032"
         x="1002.8918"
         y="-179.36188" />
      <text
         transform="scale(1.0019446,0.99805918)"
         sodipodi:linespacing="125%"
         id="text5919"
         y="1043.9403"
         x="78.024986"
         style="font-style:normal;font-weight:normal;font-size:39.6644249px;line-height:125%;font-family:sans-serif;letter-spacing:0px;word-spacing:0px;opacity:0.2;fill:#000000;fill-opacity:1;stroke:none;stroke-width:1px;stroke-linecap:butt;stroke-linejoin:miter;stroke-opacity:1"
         xml:space="preserve"><tspan
           y="1043.9403"
           x="78.024986"
           id="tspan5921"
           sodipodi:role="line">d</tspan></text>
    </g>
    <rect
       y="-34.103577"
       x="776.87915"
       height="33.724426"
       width="68.207253"
       id="rect4754"
       style="opacity:1;fill:#1c6fb2;fill-opacity:1;fill-rule:nonzero;stroke:#1c6fb2;stroke-width:0.75832891;stroke-miterlimit:4;stroke-dasharray:none;stroke-dashoffset:0;stroke-opacity:1"
       transform="matrix(0,1,-1,0,0,0)" />
    <g
       id="g5135"
       transform="matrix(1.7241378,0,0,1.7241395,-396.55179,-936.11247)">
      <path
         inkscape:connector-curvature="0"
         id="path5958"
         d="m 242.66506,1011.8079 -5.50322,8.606 2.74001,0.185 -2.83289,7.3568 5.82829,-8.1664 -2.531,-0.6246 z"
         style="fill:#ffffff;fill-rule:evenodd;stroke:#ffffff;stroke-width:0.09177748px;stroke-linecap:butt;stroke-linejoin:miter;stroke-opacity:1" />
      <text
         transform="scale(1.0018549,0.99814853)"
         sodipodi:linespacing="125%"
         id="text4256"
         y="1010.9795"
         x="237.43559"
         style="font-style:normal;font-weight:normal;font-size:23.00330544px;line-height:125%;font-family:sans-serif;letter-spacing:0px;word-spacing:0px;opacity:1;fill:#ffffff;fill-opacity:1;stroke:none;stroke-width:1px;stroke-linecap:butt;stroke-linejoin:miter;stroke-opacity:1"
         xml:space="preserve"><tspan
           style="font-size:14.37706661px;fill:#ffffff"
           y="1010.9795"
           x="237.43559"
           id="tspan4258"
           sodipodi:role="line">I</tspan></text>
    </g>
    <g
       id="g7201"
       transform="matrix(1.7238287,0,0,1.7241393,-5.4647837,-762.90857)">
      <rect
         transform="matrix(0,1,-1,0,0,0)"
         y="-232.99142"
         x="833.07623"
         height="19.563677"
         width="39.560177"
         id="rect4752"
         style="opacity:1;fill:#008288;fill-opacity:1;fill-rule:nonzero;stroke:#008288;stroke-width:0.43987006;stroke-miterlimit:4;stroke-dasharray:none;stroke-dashoffset:0;stroke-opacity:1" />
      <g
         transform="matrix(1.0001793,0,0,1.0000001,213.71138,-22.519298)"
         id="g5120">
        <path
           inkscape:connector-curvature="0"
           id="path5960"
           d="m 12.161537,875.22318 -5.5032131,8.60601 2.74,0.18507 -2.832875,7.35674 5.8282951,-8.1664 -2.5310151,-0.62469 z"
           style="fill:#ffffff;fill-rule:evenodd;stroke:#ffffff;stroke-width:0.09177748px;stroke-linecap:butt;stroke-linejoin:miter;stroke-opacity:1" />
        <text
           xml:space="preserve"
           style="font-style:normal;font-weight:normal;font-size:23.00330544px;line-height:125%;font-family:sans-serif;letter-spacing:0px;word-spacing:0px;opacity:1;fill:#ffffff;fill-opacity:1;stroke:none;stroke-width:1px;stroke-linecap:butt;stroke-linejoin:miter;stroke-opacity:1"
           x="3.9084983"
           y="871.42828"
           id="text4264"
           sodipodi:linespacing="125%"
           transform="scale(1.0018549,0.99814853)"><tspan
             sodipodi:role="line"
             id="tspan4266"
             x="3.9084983"
             y="871.42828"
             style="font-size:14.37706661px;fill:#ffffff">K</tspan></text>
      </g>
    </g>
    <rect
       transform="matrix(0,1,-1,0,0,0)"
       y="-344.44827"
       x="966.53412"
       height="33.724205"
       width="68.207253"
       id="rect7178"
       style="opacity:1;fill:#9a324f;fill-opacity:1;fill-rule:nonzero;stroke:#9a324f;stroke-width:0.75855052;stroke-miterlimit:4;stroke-dasharray:none;stroke-dashoffset:0;stroke-opacity:1" />
    <path
       style="fill:#ffffff;fill-rule:evenodd;stroke:#ffffff;stroke-width:0.15823656px;stroke-linecap:butt;stroke-linejoin:miter;stroke-opacity:1"
       d="m 332.18102,1000.375 -9.48824,14.8381 4.72411,0.319 -4.88423,12.6841 10.04871,-14.08 -4.36379,-1.0771 z"
       id="path7182"
       inkscape:connector-curvature="0" />
    <text
       transform="scale(1.001851,0.99815238)"
       sodipodi:linespacing="125%"
       id="text7184"
       y="992.88495"
       x="325.18353"
       style="font-style:normal;font-weight:normal;font-size:39.66075516px;line-height:125%;font-family:sans-serif;letter-spacing:0px;word-spacing:0px;opacity:1;fill:#ffffff;fill-opacity:1;stroke:none;stroke-width:0.44000006;stroke-linecap:butt;stroke-linejoin:miter;stroke-miterlimit:4;stroke-dasharray:none;stroke-opacity:1"
       xml:space="preserve"><tspan
         style="font-size:24.7879734px;fill:#ffffff;stroke-width:0.44000006;stroke-miterlimit:4;stroke-dasharray:none"
         y="992.88495"
         x="325.18353"
         id="tspan7186"
         sodipodi:role="line">J</tspan></text>
    <path
       d="m 0.85862141,673.91047 0,377.59303 M 18.040776,673.91047 l 0,377.59303 m 17.182154,-377.59303 0,377.59303 m 17.182174,-377.59303 0,377.59303 m 17.182155,-377.59303 0,377.59303 m 17.182175,-377.59303 0,377.59303 m 17.182156,-377.59303 0,377.59303 m 17.18215,-377.59303 0,377.59303 m 17.18217,-377.59303 0,377.59303 m 17.18216,-377.59303 0,377.59303 m 17.18218,-377.59303 0,377.59303 m 17.18215,-377.59303 0,377.59303 m 17.18214,-377.59303 0,377.59303 m 17.18218,-377.59303 0,377.59303 m 17.18215,-377.59303 0,377.59303 m 17.18219,-377.59303 0,377.59303 m 17.18215,-377.59303 0,377.59303 m 17.18217,-377.59303 0,377.59303 m 17.18214,-377.59303 0,377.59303 m 17.18218,-377.59303 0,377.59303 m 17.18215,-377.59303 0,377.59303 m 17.18219,-377.59303 0,377.59303 m 17.18215,-377.59303 0,377.59303 m 17.18215,-377.59303 0,377.59303 m 17.18217,-377.59303 0,377.59303 m 17.18214,-377.59303 0,377.59303 m 17.18216,-377.59303 0,377.59303 m 17.18219,-377.59303 0,377.59303 m 17.18213,-377.59303 0,377.59303 m 17.18217,-377.59303 0,377.59303 M 0.85862141,673.91047 l 498.28267859,0 m -498.28267859,17.16339 498.28267859,0 m -498.28267859,17.16328 498.28267859,0 m -498.28267859,17.16329 498.28267859,0 m -498.28267859,17.1633 498.28267859,0 m -498.28267859,17.1634 498.28267859,0 m -498.28267859,17.16329 498.28267859,0 M 0.85862141,794.0537 l 498.28267859,0 m -498.28267859,17.16324 498.28267859,0 m -498.28267859,17.16334 498.28267859,0 M 0.85862141,845.5435 l 498.28267859,0 m -498.28267859,17.16343 498.28267859,0 m -498.28267859,17.16334 498.28267859,0 m -498.28267859,17.16322 498.28267859,0 m -498.28267859,17.16343 498.28267859,0 m -498.28267859,17.16324 498.28267859,0 m -498.28267859,17.16322 498.28267859,0 m -498.28267859,17.1636 498.28267859,0 m -498.28267859,17.1631 498.28267859,0 m -498.28267859,17.16362 498.28267859,0 m -498.28267859,17.1633 498.28267859,0 m -498.28267859,17.1634 498.28267859,0 m -498.28267859,17.1631 498.28267859,0"
       style="opacity:0.1;fill:#ffffff;fill-opacity:0.75;fill-rule:evenodd;stroke:#000000;stroke-width:1.71727324;stroke-linecap:butt;stroke-linejoin:miter;stroke-miterlimit:4;stroke-dasharray:none;stroke-opacity:1"
       id="path5889"
       inkscape:connector-curvature="0" />
  </g>
</svg>
