<?xml version="1.0" encoding="UTF-8" standalone="no"?>
<!-- Created with Inkscape (http://www.inkscape.org/) -->

<svg
   xmlns:dc="http://purl.org/dc/elements/1.1/"
   xmlns:cc="http://creativecommons.org/ns#"
   xmlns:rdf="http://www.w3.org/1999/02/22-rdf-syntax-ns#"
   xmlns:svg="http://www.w3.org/2000/svg"
   xmlns="http://www.w3.org/2000/svg"
   xmlns:sodipodi="http://sodipodi.sourceforge.net/DTD/sodipodi-0.dtd"
   xmlns:inkscape="http://www.inkscape.org/namespaces/inkscape"
   width="500"
   height="380"
   viewBox="0 0 500.00002 379.99998"
   id="svg2"
   version="1.1"
   inkscape:version="0.91 r13725"
   sodipodi:docname="power-grid.svg">
  <defs
     id="defs4" />
  <sodipodi:namedview
     id="base"
     pagecolor="#ffffff"
     bordercolor="#666666"
     borderopacity="1.0"
     inkscape:pageopacity="0.0"
     inkscape:pageshadow="2"
     inkscape:zoom="0.50000001"
     inkscape:cx="375.23161"
     inkscape:cy="316.41922"
     inkscape:document-units="px"
     inkscape:current-layer="layer1"
     showgrid="false"
     showguides="false"
     inkscape:window-width="1600"
     inkscape:window-height="851"
     inkscape:window-x="0"
     inkscape:window-y="0"
     inkscape:window-maximized="1"
     units="px" />
  <metadata
     id="metadata7">
    <rdf:RDF>
      <cc:Work
         rdf:about="">
        <dc:format>image/svg+xml</dc:format>
        <dc:type
           rdf:resource="http://purl.org/dc/dcmitype/StillImage" />
        <dc:title></dc:title>
      </cc:Work>
    </rdf:RDF>
  </metadata>
  <g
     inkscape:label="Layer 1"
     inkscape:groupmode="layer"
     id="layer1"
     transform="translate(0,-672.36218)">
    <rect
       style="opacity:1;fill:#f2f2f2;fill-opacity:1;fill-rule:nonzero;stroke:#f2f2f2;stroke-width:1.71727407;stroke-miterlimit:4;stroke-dasharray:none;stroke-dashoffset:0;stroke-opacity:1"
       id="rect5941"
       width="498.28275"
       height="377.59311"
       x="0.85863703"
       y="673.91022" />
    <rect
       y="880.98694"
       x="70.004372"
       height="170.33612"
       width="101.3706"
       id="rect4732"
       style="opacity:1;fill:#00adb5;fill-opacity:1;fill-rule:nonzero;stroke:#00adb5;stroke-width:2.07768321;stroke-miterlimit:4;stroke-dasharray:none;stroke-dashoffset:0;stroke-opacity:1" />
    <rect
       y="1018.2582"
       x="0.37916428"
       height="33.72443"
       width="68.207191"
       id="rect4738"
       style="opacity:1;fill:#214dd5;fill-opacity:1;fill-rule:nonzero;stroke:#214dd5;stroke-width:0.75832856;stroke-miterlimit:4;stroke-dasharray:none;stroke-dashoffset:0;stroke-opacity:1" />
    <rect
       style="opacity:1;fill:#9df276;fill-opacity:1;fill-rule:nonzero;stroke:#9df276;stroke-width:2.40011001;stroke-miterlimit:4;stroke-dasharray:none;stroke-dashoffset:0;stroke-opacity:1"
       id="rect4740"
       width="135.53093"
       height="170.01369"
       x="173.61385"
       y="881.14819" />
    <rect
       y="708.65662"
       x="190.77756"
       height="170.16905"
       width="118.44491"
       id="rect4742"
       style="opacity:1;fill:#ff5757;fill-opacity:1;fill-rule:nonzero;stroke:#ff5757;stroke-width:2.24475265;stroke-miterlimit:4;stroke-dasharray:none;stroke-dashoffset:0;stroke-opacity:1" />
    <rect
       y="880.87762"
       x="311.27432"
       height="136.07204"
       width="101.58928"
       id="rect4744"
       style="opacity:1;fill:#f08a5d;fill-opacity:1;fill-rule:nonzero;stroke:#f08a5d;stroke-width:1.8589958;stroke-miterlimit:4;stroke-dasharray:none;stroke-dashoffset:0;stroke-opacity:1" />
    <rect
       style="opacity:1;fill:#f9ed69;fill-opacity:1;fill-rule:nonzero;stroke:#f9ed69;stroke-width:2.27498579;stroke-miterlimit:4;stroke-dasharray:none;stroke-dashoffset:0;stroke-opacity:1"
       id="rect4746"
       width="101.17329"
       height="204.62158"
       x="311.48233"
       y="674.18909" />
    <rect
       y="743.28644"
       x="415.06183"
       height="307.80743"
       width="83.669472"
       id="rect4750"
       style="opacity:1;fill:#b83b5e;fill-opacity:1;fill-rule:nonzero;stroke:#b83b5e;stroke-width:2.53742433;stroke-miterlimit:4;stroke-dasharray:none;stroke-dashoffset:0;stroke-opacity:1" />
    <rect
       style="opacity:1;fill:#7a273e;fill-opacity:1;fill-rule:nonzero;stroke:#7a273e;stroke-width:0.75832862;stroke-miterlimit:4;stroke-dasharray:none;stroke-dashoffset:0;stroke-opacity:1"
       id="rect4752"
       width="68.207191"
       height="33.72443"
       x="414.17227"
       y="707.91345" />
    <rect
       y="1018.2582"
       x="310.724"
       height="33.72443"
       width="68.207191"
       id="rect4754"
       style="opacity:1;fill:#eb6223;fill-opacity:1;fill-rule:nonzero;stroke:#eb6223;stroke-width:0.75832856;stroke-miterlimit:4;stroke-dasharray:none;stroke-dashoffset:0;stroke-opacity:1" />
    <rect
       style="opacity:1;fill:#2185d5;fill-opacity:1;fill-rule:nonzero;stroke:#2185d5;stroke-width:2.39199424;stroke-miterlimit:4;stroke-dasharray:none;stroke-dashoffset:0;stroke-opacity:1"
       id="rect4730"
       width="66.573524"
       height="343.77847"
       x="1.1959971"
       y="672.9046" />
    <rect
       style="opacity:1;fill:#625772;fill-opacity:1;fill-rule:nonzero;stroke:#625772;stroke-width:2.12983012;stroke-miterlimit:4;stroke-dasharray:none;stroke-dashoffset:0;stroke-opacity:1"
       id="rect4734"
       width="118.55982"
       height="153.0426"
       x="70.030434"
       y="725.84052" />
    <rect
       style="opacity:1;fill:#4a4255;fill-opacity:1;fill-rule:nonzero;stroke:#4a4255;stroke-width:0.7583285;stroke-miterlimit:4;stroke-dasharray:none;stroke-dashoffset:0;stroke-opacity:1"
       id="rect4748"
       width="68.207191"
       height="33.72443"
       x="121.06882"
       y="690.67206" />
    <g
       id="g5970"
       transform="matrix(1.724138,0,0,1.724138,0,-762.05577)">
      <path
         inkscape:connector-curvature="0"
         id="path5954"
         d="m 22.682921,1034.2031 -5.539993,8.6957 2.758308,0.187 -2.85181,7.4334 5.86725,-8.2515 -2.547929,-0.6312 z"
         style="fill:#ffffff;fill-rule:evenodd;stroke:#ffffff;stroke-width:0.09256224px;stroke-linecap:butt;stroke-linejoin:miter;stroke-opacity:1" />
      <path
         style="fill:#ffffff;fill-rule:evenodd;stroke:#ffffff;stroke-width:0.09256224px;stroke-linecap:butt;stroke-linejoin:miter;stroke-opacity:1"
         d="m 92.682923,844.20315 -5.539993,8.6957 2.758308,0.187 -2.85181,7.4334 5.86725,-8.2515 -2.547929,-0.6312 z"
         id="path5956"
         inkscape:connector-curvature="0" />
      <path
         inkscape:connector-curvature="0"
         id="path5958"
         d="m 202.68291,1034.2031 -5.53999,8.6957 2.75831,0.187 -2.85181,7.4334 5.86725,-8.2515 -2.54793,-0.6312 z"
         style="fill:#ffffff;fill-rule:evenodd;stroke:#ffffff;stroke-width:0.09256224px;stroke-linecap:butt;stroke-linejoin:miter;stroke-opacity:1" />
      <path
         style="fill:#ffffff;fill-rule:evenodd;stroke:#ffffff;stroke-width:0.09256224px;stroke-linecap:butt;stroke-linejoin:miter;stroke-opacity:1"
         d="m 262.68291,854.20315 -5.53999,8.6957 2.75831,0.187 -2.85181,7.4334 5.86725,-8.2515 -2.54793,-0.6312 z"
         id="path5960"
         inkscape:connector-curvature="0" />
    </g>
    <path
       d="m 0.85863696,673.91005 0,377.59325 M 18.040793,673.91005 l 0,377.59325 m 17.182157,-377.59325 0,377.59325 m 17.182174,-377.59325 0,377.59325 m 17.182156,-377.59325 0,377.59325 m 17.182173,-377.59325 0,377.59325 m 17.182157,-377.59325 0,377.59325 m 17.18217,-377.59325 0,377.59325 m 17.18216,-377.59325 0,377.59325 m 17.18217,-377.59325 0,377.59325 m 17.18217,-377.59325 0,377.59325 m 17.18217,-377.59325 0,377.59325 m 17.18215,-377.59325 0,377.59325 m 17.18217,-377.59325 0,377.59325 m 17.18216,-377.59325 0,377.59325 m 17.18217,-377.59325 0,377.59325 m 17.18216,-377.59325 0,377.59325 m 17.18217,-377.59325 0,377.59325 m 17.18215,-377.59325 0,377.59325 m 17.18217,-377.59325 0,377.59325 m 17.18217,-377.59325 0,377.59325 m 17.18217,-377.59325 0,377.59325 m 17.18216,-377.59325 0,377.59325 m 17.18215,-377.59325 0,377.59325 m 17.18217,-377.59325 0,377.59325 m 17.18216,-377.59325 0,377.59325 m 17.18217,-377.59325 0,377.59325 m 17.18217,-377.59325 0,377.59325 m 17.18215,-377.59325 0,377.59325 m 17.18217,-377.59325 0,377.59325 M 0.85863696,673.91005 l 498.28275304,0 m -498.28275304,17.16333 498.28275304,0 m -498.28275304,17.16331 498.28275304,0 M 0.85863696,725.4 499.14139,725.4 m -498.28275304,17.16333 498.28275304,0 m -498.28275304,17.16333 498.28275304,0 m -498.28275304,17.16331 498.28275304,0 M 0.85863696,794.0533 l 498.28275304,0 m -498.28275304,17.16333 498.28275304,0 M 0.85863696,828.3799 l 498.28275304,0 m -498.28275304,17.16334 498.28275304,0 m -498.28275304,17.16344 498.28275304,0 m -498.28275304,17.16327 498.28275304,0 m -498.28275304,17.16329 498.28275304,0 m -498.28275304,17.16344 498.28275304,0 m -498.28275304,17.16328 498.28275304,0 m -498.28275304,17.1631 498.28275304,0 m -498.28275304,17.16368 498.28275304,0 m -498.28275304,17.1631 498.28275304,0 m -498.28275304,17.16346 498.28275304,0 m -498.28275304,17.1633 498.28275304,0 m -498.28275304,17.1635 498.28275304,0 m -498.28275304,17.1632 498.28275304,0"
       style="opacity:0.1;fill:#ffffff;fill-opacity:0.75;fill-rule:evenodd;stroke:#000000;stroke-width:1.71727395;stroke-linecap:butt;stroke-linejoin:miter;stroke-miterlimit:4;stroke-dasharray:none;stroke-opacity:1"
       id="path5889"
       inkscape:connector-curvature="0" />
    <g
       id="g5923"
       style="opacity:0.2"
       transform="matrix(1.724138,0,0,1.724138,0,-762.05577)">
      <text
         sodipodi:linespacing="125%"
         id="text5891"
         y="942.89069"
         x="7.6562505"
         style="font-style:normal;font-weight:normal;font-size:40px;line-height:125%;font-family:sans-serif;letter-spacing:0px;word-spacing:0px;fill:#000000;fill-opacity:1;stroke:none;stroke-width:1px;stroke-linecap:butt;stroke-linejoin:miter;stroke-opacity:1"
         xml:space="preserve"><tspan
           y="942.89069"
           x="7.6562505"
           id="tspan5893"
           sodipodi:role="line">e</tspan></text>
      <text
         sodipodi:linespacing="125%"
         id="text5895"
         y="918.28009"
         x="63.359371"
         style="font-style:normal;font-weight:normal;font-size:40px;line-height:125%;font-family:sans-serif;letter-spacing:0px;word-spacing:0px;fill:#000000;fill-opacity:1;stroke:none;stroke-width:1px;stroke-linecap:butt;stroke-linejoin:miter;stroke-opacity:1"
         xml:space="preserve"><tspan
           y="918.28009"
           x="63.359371"
           id="tspan5897"
           sodipodi:role="line">a</tspan></text>
      <text
         sodipodi:linespacing="125%"
         id="text5899"
         y="1017.5575"
         x="62.119144"
         style="font-style:normal;font-weight:normal;font-size:40px;line-height:125%;font-family:sans-serif;letter-spacing:0px;word-spacing:0px;fill:#000000;fill-opacity:1;stroke:none;stroke-width:1px;stroke-linecap:butt;stroke-linejoin:miter;stroke-opacity:1"
         xml:space="preserve"><tspan
           y="1017.5575"
           x="62.119144"
           id="tspan5901"
           sodipodi:role="line">f</tspan></text>
      <text
         sodipodi:linespacing="125%"
         id="text5903"
         y="1017.5575"
         x="127.20703"
         style="font-style:normal;font-weight:normal;font-size:40px;line-height:125%;font-family:sans-serif;letter-spacing:0px;word-spacing:0px;fill:#000000;fill-opacity:1;stroke:none;stroke-width:1px;stroke-linecap:butt;stroke-linejoin:miter;stroke-opacity:1"
         xml:space="preserve"><tspan
           y="1017.5575"
           x="127.20703"
           id="tspan5905"
           sodipodi:role="line">h</tspan></text>
      <text
         sodipodi:linespacing="125%"
         id="text5907"
         y="909.4256"
         x="132.83505"
         style="font-style:normal;font-weight:normal;font-size:40px;line-height:125%;font-family:sans-serif;letter-spacing:0px;word-spacing:0px;fill:#000000;fill-opacity:1;stroke:none;stroke-width:1px;stroke-linecap:butt;stroke-linejoin:miter;stroke-opacity:1"
         xml:space="preserve"><tspan
           y="909.4256"
           x="132.83505"
           id="tspan5909"
           sodipodi:role="line">c</tspan></text>
      <text
         sodipodi:linespacing="125%"
         id="text5911"
         y="907.27435"
         x="196.58203"
         style="font-style:normal;font-weight:normal;font-size:40px;line-height:125%;font-family:sans-serif;letter-spacing:0px;word-spacing:0px;fill:#000000;fill-opacity:1;stroke:none;stroke-width:1px;stroke-linecap:butt;stroke-linejoin:miter;stroke-opacity:1"
         xml:space="preserve"><tspan
           y="907.27435"
           x="196.58203"
           id="tspan5913"
           sodipodi:role="line">b</tspan></text>
      <text
         sodipodi:linespacing="125%"
         id="text5915"
         y="999.4032"
         x="198.01758"
         style="font-style:normal;font-weight:normal;font-size:40px;line-height:125%;font-family:sans-serif;letter-spacing:0px;word-spacing:0px;fill:#000000;fill-opacity:1;stroke:none;stroke-width:1px;stroke-linecap:butt;stroke-linejoin:miter;stroke-opacity:1"
         xml:space="preserve"><tspan
           y="999.4032"
           x="198.01758"
           id="tspan5917"
           sodipodi:role="line">g</tspan></text>
      <text
         sodipodi:linespacing="125%"
         id="text5919"
         y="977.27472"
         x="253.01758"
         style="font-style:normal;font-weight:normal;font-size:40px;line-height:125%;font-family:sans-serif;letter-spacing:0px;word-spacing:0px;fill:#000000;fill-opacity:1;stroke:none;stroke-width:1px;stroke-linecap:butt;stroke-linejoin:miter;stroke-opacity:1"
         xml:space="preserve"><tspan
           y="977.27472"
           x="253.01758"
           id="tspan5921"
           sodipodi:role="line">d</tspan></text>
    </g>
  </g>
</svg>
